# WaveFront *.obj file (generated by Autodesk ATF)

mtllib 69cc4c2f-7dc0-4d7b-97d4-9b678d7af4e0.mtl

g Body1

v -10.200000 10.200000 17.600000
v -10.200000 14.800000 17.600000
v -10.200000 14.800000 18.000000
v -10.200000 10.200000 18.000000
v -49.800000 10.200000 17.600000
v -49.800000 10.200000 18.000000
v -49.800000 14.800000 17.600000
v -49.800000 14.800000 18.000000
v -30.455890 53.975354 17.600000
v -15.710656 16.800000 17.600000
v -15.710656 16.800000 18.000000
v -30.455890 53.975354 18.000000
v -45.355886 16.800000 17.600000
v -45.355886 16.800000 18.000000
v -51.800000 16.800000 17.600000
v -51.800000 16.800000 18.000000
v -51.800000 8.200000 17.600000
v -51.800000 8.200000 18.000000
v -8.200000 8.200000 17.600000
v -8.200000 8.200000 18.000000
v -8.200000 16.800000 17.600000
v -8.200000 16.800000 18.000000
v 0.000000 0.000000 18.000000
v 0.000000 60.000000 18.000000
v -60.000000 60.000000 18.000000
v -60.000000 0.000000 18.000000
v -43.201223 16.800000 17.600000
v -17.862235 16.800000 17.600000
v -17.862235 16.800000 18.000000
v -43.201223 16.800000 18.000000
v -40.315441 24.000000 17.600000
v -40.315441 24.000000 18.000000
v -20.718043 24.000000 17.600000
v -20.718043 24.000000 18.000000
v -30.465589 48.575292 17.600000
v -34.500659 38.507829 17.600000
v -34.500659 38.507829 18.000000
v -30.465589 48.575292 18.000000
v -26.472430 38.507829 17.600000
v -26.472430 38.507829 18.000000
v -25.679150 36.507829 17.600000
v -35.302265 36.507829 17.600000
v -35.302265 36.507829 18.000000
v -25.679150 36.507829 18.000000
v -21.511324 26.000000 17.600000
v -21.511324 26.000000 18.000000
v -39.513835 26.000000 17.600000
v -39.513835 26.000000 18.000000
v 0.000000 0.000000 0.000000
v -0.000000 60.000000 0.000000
v -60.000000 -0.000000 0.000000
v -60.000000 60.000000 0.000000
vt 0.000000 0.000000 0.000000
vt 0.460000 0.000000 0.000000
vt 0.000000 0.040000 0.000000
vt 0.460000 0.040000 0.000000
vt 0.000000 0.000000 0.000000
vt 3.960000 0.000000 0.000000
vt 0.000000 0.040000 0.000000
vt 3.960000 0.040000 0.000000
vt -0.000000 0.000000 0.000000
vt 0.460000 0.000000 0.000000
vt -0.000000 0.040000 0.000000
vt 0.460000 0.040000 0.000000
vt -0.000000 0.000000 0.000000
vt 3.960000 0.000000 0.000000
vt -0.000000 0.040000 0.000000
vt 3.960000 0.040000 0.000000
vt 1.980000 0.230000 0.000000
vt -1.980000 0.230000 0.000000
vt 1.980000 -0.230000 0.000000
vt -1.980000 -0.230000 0.000000
vt 0.000000 0.000000 0.000000
vt 3.999286 0.000000 0.000000
vt 0.000000 0.040000 0.000000
vt 3.999286 0.040000 0.000000
vt 0.000000 0.000000 0.000000
vt 4.005018 0.000000 0.000000
vt 0.000000 0.040000 0.000000
vt 4.005018 0.040000 0.000000
vt 0.000000 0.000000 0.000000
vt 0.644411 0.000000 0.000000
vt 0.000000 0.040000 0.000000
vt 0.644411 0.040000 0.000000
vt 0.000000 0.000000 0.000000
vt 0.860000 0.000000 0.000000
vt 0.000000 0.040000 0.000000
vt 0.860000 0.040000 0.000000
vt 0.000000 0.000000 0.000000
vt 4.360000 0.000000 0.000000
vt 0.000000 0.040000 0.000000
vt 4.360000 0.040000 0.000000
vt 0.000000 0.000000 0.000000
vt 0.860000 0.000000 0.000000
vt 0.000000 0.040000 0.000000
vt 0.860000 0.040000 0.000000
vt 0.000000 0.000000 0.000000
vt 0.751066 0.000000 0.000000
vt 0.000000 0.040000 0.000000
vt 0.751066 0.040000 0.000000
vt -0.045589 2.397535 0.000000
vt 1.428934 -1.320000 0.000000
vt 3.000000 3.000000 0.000000
vt 2.180000 -1.320000 0.000000
vt 3.000000 -3.000000 0.000000
vt 2.180000 -2.180000 0.000000
vt -2.180000 -2.180000 0.000000
vt -3.000000 -3.000000 0.000000
vt -2.180000 -1.320000 0.000000
vt -3.000000 3.000000 0.000000
vt -1.535589 -1.320000 0.000000
vt 0.000000 0.000000 0.000000
vt 2.533899 0.000000 0.000000
vt 0.000000 0.040000 0.000000
vt 2.533899 0.040000 0.000000
vt -0.000000 0.000000 0.000000
vt 0.775679 0.000000 0.000000
vt -0.000000 0.040000 0.000000
vt 0.775679 0.040000 0.000000
vt 0.000000 0.000000 0.000000
vt 1.959740 0.000000 0.000000
vt 0.000000 0.040000 0.000000
vt 1.959740 0.040000 0.000000
vt 0.000000 0.000000 0.000000
vt 0.774569 0.000000 0.000000
vt 0.000000 0.040000 0.000000
vt 0.774569 0.040000 0.000000
vt 0.981369 0.360000 0.000000
vt -0.978371 0.360000 0.000000
vt 1.266949 -0.360000 0.000000
vt -1.266949 -0.360000 0.000000
vt 0.000000 0.000000 0.000000
vt 1.084599 0.000000 0.000000
vt 0.000000 0.040000 0.000000
vt 1.084599 0.040000 0.000000
vt 0.000000 0.000000 0.000000
vt 1.083047 0.000000 0.000000
vt 0.000000 0.040000 0.000000
vt 1.083047 0.040000 0.000000
vt 0.000000 0.000000 0.000000
vt 0.802823 0.000000 0.000000
vt 0.000000 0.040000 0.000000
vt 0.802823 0.040000 0.000000
vt -0.401411 -0.503373 0.000000
vt 0.401411 -0.503373 0.000000
vt 0.002096 0.503373 0.000000
vt -0.000000 0.000000 0.000000
vt 0.962312 0.000000 0.000000
vt -0.000000 0.040000 0.000000
vt 0.962312 0.040000 0.000000
vt 0.000000 0.000000 0.000000
vt 1.130421 0.000000 0.000000
vt 0.000000 0.040000 0.000000
vt 1.130421 0.040000 0.000000
vt 0.000000 0.000000 0.000000
vt 1.800251 0.000000 0.000000
vt 0.000000 0.040000 0.000000
vt 1.800251 0.040000 0.000000
vt 0.000000 0.000000 0.000000
vt 1.132042 0.000000 0.000000
vt 0.000000 0.040000 0.000000
vt 1.132042 0.040000 0.000000
vt -0.900126 -0.525391 0.000000
vt 0.900126 -0.525391 0.000000
vt -0.478969 0.525391 0.000000
vt 0.483343 0.525391 0.000000
vt 0.000000 0.000000 0.000000
vt 6.000000 0.000000 0.000000
vt 0.000000 1.800000 0.000000
vt 6.000000 1.800000 0.000000
vt 0.000000 0.000000 0.000000
vt 6.000000 0.000000 0.000000
vt 0.000000 1.800000 0.000000
vt 6.000000 1.800000 0.000000
vt -0.000000 0.000000 0.000000
vt 6.000000 0.000000 0.000000
vt -0.000000 1.800000 0.000000
vt 6.000000 1.800000 0.000000
vt 0.000000 0.000000 0.000000
vt 6.000000 0.000000 0.000000
vt -0.000000 1.800000 0.000000
vt 6.000000 1.800000 0.000000
vt 1.980000 -1.980000 0.000000
vt 2.180000 -2.180000 0.000000
vt 1.980000 -1.520000 0.000000
vt 2.180000 -1.320000 0.000000
vt 1.428934 -1.320000 0.000000
vt -1.980000 -1.980000 0.000000
vt -2.180000 -2.180000 0.000000
vt -1.980000 -1.520000 0.000000
vt -2.180000 -1.320000 0.000000
vt -1.535589 -1.320000 0.000000
vt -1.320122 -1.320000 0.000000
vt -1.031544 -0.600000 0.000000
vt 1.213776 -1.320000 0.000000
vt -0.045589 2.397535 0.000000
vt 0.432085 0.650783 0.000000
vt 0.848868 -0.400000 0.000000
vt 0.928196 -0.600000 0.000000
vt -0.951383 -0.400000 0.000000
vt -0.530226 0.650783 0.000000
vt -0.450066 0.850783 0.000000
vt -0.046559 1.857529 0.000000
vt 0.352757 0.850783 0.000000
vt 3.000000 3.000000 0.000000
vt -3.000000 3.000000 0.000000
vt 3.000000 -3.000000 0.000000
vt -3.000000 -3.000000 0.000000
vn 0.100000 0.000000 0.000000
vn 0.100000 0.000000 0.000000
vn 0.100000 0.000000 0.000000
vn 0.100000 0.000000 0.000000
vn 0.000000 -0.100000 0.000000
vn 0.000000 -0.100000 0.000000
vn 0.000000 -0.100000 0.000000
vn 0.000000 -0.100000 0.000000
vn -0.100000 0.000000 0.000000
vn -0.100000 0.000000 0.000000
vn -0.100000 0.000000 0.000000
vn -0.100000 0.000000 0.000000
vn 0.000000 0.100000 0.000000
vn 0.000000 0.100000 0.000000
vn 0.000000 0.100000 0.000000
vn 0.000000 0.100000 0.000000
vn 0.000000 0.000000 0.100000
vn 0.000000 0.000000 0.100000
vn 0.000000 0.000000 0.100000
vn 0.000000 0.000000 0.100000
vn -0.092955 -0.036870 0.000000
vn -0.092955 -0.036870 0.000000
vn -0.092955 -0.036870 0.000000
vn -0.092955 -0.036870 0.000000
vn 0.092822 -0.037203 0.000000
vn 0.092822 -0.037203 0.000000
vn 0.092822 -0.037203 0.000000
vn 0.092822 -0.037203 0.000000
vn 0.000000 -0.100000 0.000000
vn 0.000000 -0.100000 0.000000
vn 0.000000 -0.100000 0.000000
vn 0.000000 -0.100000 0.000000
vn 0.100000 0.000000 0.000000
vn 0.100000 0.000000 0.000000
vn 0.100000 0.000000 0.000000
vn 0.100000 0.000000 0.000000
vn 0.000000 0.100000 0.000000
vn 0.000000 0.100000 0.000000
vn 0.000000 0.100000 0.000000
vn 0.000000 0.100000 0.000000
vn -0.100000 -0.000000 0.000000
vn -0.100000 -0.000000 0.000000
vn -0.100000 -0.000000 0.000000
vn -0.100000 -0.000000 0.000000
vn 0.000000 -0.100000 0.000000
vn 0.000000 -0.100000 0.000000
vn 0.000000 -0.100000 0.000000
vn 0.000000 -0.100000 0.000000
vn 0.000000 0.000000 0.100000
vn 0.000000 0.000000 0.100000
vn 0.000000 0.000000 0.100000
vn 0.000000 0.000000 0.100000
vn 0.000000 0.000000 0.100000
vn 0.000000 0.000000 0.100000
vn 0.000000 0.000000 0.100000
vn 0.000000 0.000000 0.100000
vn 0.000000 0.000000 0.100000
vn 0.000000 0.000000 0.100000
vn 0.000000 0.000000 0.100000
vn 0.000000 -0.100000 0.000000
vn 0.000000 -0.100000 0.000000
vn 0.000000 -0.100000 0.000000
vn 0.000000 -0.100000 0.000000
vn -0.092822 0.037203 0.000000
vn -0.092822 0.037203 0.000000
vn -0.092822 0.037203 0.000000
vn -0.092822 0.037203 0.000000
vn 0.000000 0.100000 0.000000
vn 0.000000 0.100000 0.000000
vn 0.000000 0.100000 0.000000
vn 0.000000 0.100000 0.000000
vn 0.092955 0.036870 0.000000
vn 0.092955 0.036870 0.000000
vn 0.092955 0.036870 0.000000
vn 0.092955 0.036870 0.000000
vn 0.000000 0.000000 0.100000
vn 0.000000 0.000000 0.100000
vn 0.000000 0.000000 0.100000
vn 0.000000 0.000000 0.100000
vn -0.092822 0.037203 0.000000
vn -0.092822 0.037203 0.000000
vn -0.092822 0.037203 0.000000
vn -0.092822 0.037203 0.000000
vn 0.092955 0.036870 0.000000
vn 0.092955 0.036870 0.000000
vn 0.092955 0.036870 0.000000
vn 0.092955 0.036870 0.000000
vn -0.000000 -0.100000 0.000000
vn -0.000000 -0.100000 0.000000
vn -0.000000 -0.100000 0.000000
vn -0.000000 -0.100000 0.000000
vn 0.000000 0.000000 0.100000
vn 0.000000 0.000000 0.100000
vn 0.000000 0.000000 0.100000
vn 0.000000 0.100000 0.000000
vn 0.000000 0.100000 0.000000
vn 0.000000 0.100000 0.000000
vn 0.000000 0.100000 0.000000
vn 0.092955 0.036870 0.000000
vn 0.092955 0.036870 0.000000
vn 0.092955 0.036870 0.000000
vn 0.092955 0.036870 0.000000
vn 0.000000 -0.100000 0.000000
vn 0.000000 -0.100000 0.000000
vn 0.000000 -0.100000 0.000000
vn 0.000000 -0.100000 0.000000
vn -0.092822 0.037203 0.000000
vn -0.092822 0.037203 0.000000
vn -0.092822 0.037203 0.000000
vn -0.092822 0.037203 0.000000
vn 0.000000 0.000000 0.100000
vn 0.000000 0.000000 0.100000
vn 0.000000 0.000000 0.100000
vn 0.000000 0.000000 0.100000
vn 0.100000 0.000000 0.000000
vn 0.100000 0.000000 0.000000
vn 0.100000 0.000000 0.000000
vn 0.100000 0.000000 0.000000
vn 0.000000 -0.100000 0.000000
vn 0.000000 -0.100000 0.000000
vn 0.000000 -0.100000 0.000000
vn 0.000000 -0.100000 0.000000
vn -0.100000 0.000000 0.000000
vn -0.100000 0.000000 0.000000
vn -0.100000 0.000000 0.000000
vn -0.100000 0.000000 0.000000
vn 0.000000 0.100000 0.000000
vn 0.000000 0.100000 0.000000
vn 0.000000 0.100000 0.000000
vn 0.000000 0.100000 0.000000
vn 0.000000 0.000000 0.100000
vn 0.000000 0.000000 0.100000
vn 0.000000 0.000000 0.100000
vn 0.000000 0.000000 0.100000
vn 0.000000 0.000000 0.100000
vn 0.000000 0.000000 0.100000
vn 0.000000 0.000000 0.100000
vn 0.000000 0.000000 0.100000
vn 0.000000 0.000000 0.100000
vn 0.000000 0.000000 0.100000
vn 0.000000 0.000000 0.100000
vn 0.000000 0.000000 0.100000
vn 0.000000 0.000000 0.100000
vn 0.000000 0.000000 0.100000
vn 0.000000 0.000000 0.100000
vn 0.000000 0.000000 0.100000
vn 0.000000 0.000000 0.100000
vn 0.000000 0.000000 0.100000
vn 0.000000 0.000000 0.100000
vn 0.000000 0.000000 0.100000
vn 0.000000 0.000000 0.100000
vn 0.000000 0.000000 0.100000
vn -0.000000 0.000000 -0.100000
vn -0.000000 0.000000 -0.100000
vn -0.000000 0.000000 -0.100000
vn -0.000000 0.000000 -0.100000
usemtl Steel_-_Satin
f 1/1/1 2/2/2 4/3/3
f 4/3/3 2/2/2 3/4/4
f 5/5/5 1/6/6 6/7/7
f 6/7/7 1/6/6 4/8/8
f 7/9/9 5/10/10 8/11/11
f 8/11/11 5/10/10 6/12/12
f 2/13/13 7/14/14 3/15/15
f 3/15/15 7/14/14 8/16/16
f 3/17/17 8/18/18 4/19/19
f 4/19/19 8/18/18 6/20/20
f 9/21/21 10/22/22 12/23/23
f 12/23/23 10/22/22 11/24/24
f 13/25/25 9/26/26 14/27/27
f 14/27/27 9/26/26 12/28/28
f 15/29/29 13/30/30 16/31/31
f 16/31/31 13/30/30 14/32/32
f 17/33/33 15/34/34 18/35/35
f 18/35/35 15/34/34 16/36/36
f 19/37/37 17/38/38 20/39/39
f 20/39/39 17/38/38 18/40/40
f 21/41/41 19/42/42 22/43/43
f 22/43/43 19/42/42 20/44/44
f 10/45/45 21/46/46 11/47/47
f 11/47/47 21/46/46 22/48/48
f 12/49/49 11/50/50 24/51/51
f 24/51/51 11/50/50 22/52/52
f 24/51/51 22/52/52 23/53/53
f 23/53/53 22/52/52 20/54/54
f 23/53/53 20/54/54 18/55/55
f 23/53/53 18/55/55 26/56/56
f 26/56/56 18/55/55 16/57/57
f 26/56/56 16/57/57 25/58/58
f 25/58/58 16/57/57 12/49/49
f 25/58/58 12/49/49 24/51/51
f 16/57/57 14/59/59 12/49/49
f 27/60/60 28/61/61 30/62/62
f 30/62/62 28/61/61 29/63/63
f 31/64/64 27/65/65 32/66/66
f 32/66/66 27/65/65 30/67/67
f 33/68/68 31/69/69 34/70/70

f 34/70/70 31/69/69 32/71/71
f 28/72/72 33/73/73 29/74/74
f 29/74/74 33/73/73 34/75/75
f 34/76/76 32/77/77 29/78/78
f 29/78/78 32/77/77 30/79/79

usemtl metalLight
f 35/80/80 36/81/81 38/82/82
f 38/82/82 36/81/81 37/83/83
f 39/84/84 35/85/85 40/86/86
f 40/86/86 35/85/85 38/87/87
f 36/88/88 39/89/89 37/90/90
f 37/90/90 39/89/89 40/91/91
f 37/92/92 40/93/93 38/94/94
f 41/95/95 42/96/96 44/97/97
f 44/97/97 42/96/96 43/98/98
f 45/99/99 41/100/100 46/101/101
f 46/101/101 41/100/100 44/102/102
f 47/103/103 45/104/104 48/105/105
f 48/105/105 45/104/104 46/106/106
f 42/107/107 47/108/108 43/109/109
f 43/109/109 47/108/108 48/110/110
f 48/111/111 46/112/112 43/113/113
f 43/113/113 46/112/112 44/114/114
f 49/115/115 50/116/116 23/117/117
f 23/117/117 50/116/116 24/118/118
f 51/119/119 49/120/120 26/121/121
f 26/121/121 49/120/120 23/122/122
f 52/123/123 51/124/124 25/125/125
f 25/125/125 51/124/124 26/126/126
f 50/127/127 52/128/128 24/129/129
f 24/129/129 52/128/128 25/130/130
f 1/131/131 19/132/132 2/133/133
f 2/133/133 19/132/132 21/134/134
f 2/133/133 21/134/134 10/135/135
f 1/131/131 5/136/136 19/132/132
f 19/132/132 5/136/136 17/137/137
f 17/137/137 5/136/136 7/138/138
f 17/137/137 7/138/138 15/139/139
f 15/139/139 7/138/138 13/140/140
f 13/140/140 7/138/138 27/141/141
f 13/140/140 27/141/141 31/142/142
f 27/141/141 7/138/138 28/143/143
f 28/143/143 7/138/138 2/133/133
f 28/143/143 2/133/133 10/135/135
f 9/144/144 41/145/145 10/135/135
f 10/135/135 41/145/145 45/146/146
f 10/135/135 45/146/146 33/147/147
f 33/147/147 45/146/146 47/148/148
f 33/147/147 47/148/148 31/142/142
f 31/142/142 47/148/148 13/140/140
f 13/140/140 42/149/149 9/144/144
f 9/144/144 42/149/149 36/150/150
f 9/144/144 36/150/150 35/151/151
f 33/147/147 28/143/143 10/135/135
f 9/144/144 35/151/151 39/152/152
f 9/144/144 39/152/152 41/145/145
f 41/145/145 39/152/152 36/150/150
f 41/145/145 36/150/150 42/149/149
f 47/148/148 42/149/149 13/140/140
f 52/153/153 50/154/154 51/155/155
f 51/155/155 50/154/154 49/156/156

# 52 vertices
# 156 texture params
# 156 normals
# 100 facets

# 1 groups
